<svg width="400" height="300" viewBox="0 0 400 300" fill="none" xmlns="http://www.w3.org/2000/svg">
  <!-- Background -->
  <rect width="400" height="300" fill="url(#schedulerGradient)"/>
  
  <!-- Calendar Container -->
  <rect x="20" y="30" width="360" height="240" rx="12" fill="white" stroke="#E2E8F0" stroke-width="1"/>
  
  <!-- Calendar Header -->
  <rect x="30" y="40" width="340" height="40" rx="6" fill="#F8FAFC"/>
  <text x="40" y="62" font-family="Inter, sans-serif" font-size="14" font-weight="600" fill="#1E293B">Content Calendar - December 2024</text>
  
  <!-- Navigation Arrows -->
  <circle cx="320" cy="60" r="12" fill="#3B82F6" fill-opacity="0.1"/>
  <path d="M315 60 L320 55 L325 60 L320 65 Z" fill="#3B82F6"/>
  
  <circle cx="350" cy="60" r="12" fill="#3B82F6" fill-opacity="0.1"/>
  <path d="M345 60 L350 65 L355 60 L350 55 Z" fill="#3B82F6"/>
  
  <!-- Calendar Grid Header -->
  <rect x="40" y="90" width="320" height="25" rx="4" fill="#F1F5F9"/>
  
  <!-- Day Headers -->
  <text x="55" y="105" font-family="Inter, sans-serif" font-size="10" font-weight="600" fill="#64748B" text-anchor="middle">Mon</text>
  <text x="100" y="105" font-family="Inter, sans-serif" font-size="10" font-weight="600" fill="#64748B" text-anchor="middle">Tue</text>
  <text x="145" y="105" font-family="Inter, sans-serif" font-size="10" font-weight="600" fill="#64748B" text-anchor="middle">Wed</text>
  <text x="190" y="105" font-family="Inter, sans-serif" font-size="10" font-weight="600" fill="#64748B" text-anchor="middle">Thu</text>
  <text x="235" y="105" font-family="Inter, sans-serif" font-size="10" font-weight="600" fill="#64748B" text-anchor="middle">Fri</text>
  <text x="280" y="105" font-family="Inter, sans-serif" font-size="10" font-weight="600" fill="#64748B" text-anchor="middle">Sat</text>
  <text x="325" y="105" font-family="Inter, sans-serif" font-size="10" font-weight="600" fill="#64748B" text-anchor="middle">Sun</text>
  
  <!-- Calendar Days Row 1 -->
  <rect x="40" y="120" width="45" height="35" fill="#FAFAFA" stroke="#E2E8F0" stroke-width="0.5"/>
  <text x="50" y="132" font-family="Inter, sans-serif" font-size="10" fill="#1E293B">2</text>
  
  <rect x="85" y="120" width="45" height="35" fill="white" stroke="#E2E8F0" stroke-width="0.5"/>
  <text x="95" y="132" font-family="Inter, sans-serif" font-size="10" fill="#1E293B">3</text>
  <rect x="90" y="138" width="35" height="12" rx="2" fill="#3B82F6"/>
  <text x="95" y="146" font-family="Inter, sans-serif" font-size="7" fill="white">Post 1</text>
  
  <rect x="130" y="120" width="45" height="35" fill="white" stroke="#E2E8F0" stroke-width="0.5"/>
  <text x="140" y="132" font-family="Inter, sans-serif" font-size="10" fill="#1E293B">4</text>
  
  <rect x="175" y="120" width="45" height="35" fill="white" stroke="#E2E8F0" stroke-width="0.5"/>
  <text x="185" y="132" font-family="Inter, sans-serif" font-size="10" fill="#1E293B">5</text>
  <rect x="180" y="138" width="35" height="12" rx="2" fill="#22C55E"/>
  <text x="185" y="146" font-family="Inter, sans-serif" font-size="7" fill="white">Post 2</text>
  
  <rect x="220" y="120" width="45" height="35" fill="white" stroke="#E2E8F0" stroke-width="0.5"/>
  <text x="230" y="132" font-family="Inter, sans-serif" font-size="10" fill="#1E293B">6</text>
  
  <rect x="265" y="120" width="45" height="35" fill="white" stroke="#E2E8F0" stroke-width="0.5"/>
  <text x="275" y="132" font-family="Inter, sans-serif" font-size="10" fill="#1E293B">7</text>
  
  <rect x="310" y="120" width="45" height="35" fill="#FAFAFA" stroke="#E2E8F0" stroke-width="0.5"/>
  <text x="320" y="132" font-family="Inter, sans-serif" font-size="10" fill="#64748B">8</text>
  
  <!-- Calendar Days Row 2 -->
  <rect x="40" y="155" width="45" height="35" fill="white" stroke="#E2E8F0" stroke-width="0.5"/>
  <text x="50" y="167" font-family="Inter, sans-serif" font-size="10" fill="#1E293B">9</text>
  
  <rect x="85" y="155" width="45" height="35" fill="white" stroke="#E2E8F0" stroke-width="0.5"/>
  <text x="95" y="167" font-family="Inter, sans-serif" font-size="10" fill="#1E293B">10</text>
  <rect x="90" y="173" width="35" height="12" rx="2" fill="#F59E0B"/>
  <text x="95" y="181" font-family="Inter, sans-serif" font-size="7" fill="white">Story</text>
  
  <rect x="130" y="155" width="45" height="35" fill="white" stroke="#E2E8F0" stroke-width="0.5"/>
  <text x="140" y="167" font-family="Inter, sans-serif" font-size="10" fill="#1E293B">11</text>
  
  <rect x="175" y="155" width="45" height="35" fill="#EFF6FF" stroke="#3B82F6" stroke-width="1"/>
  <text x="185" y="167" font-family="Inter, sans-serif" font-size="10" font-weight="600" fill="#3B82F6">12</text>
  <rect x="180" y="173" width="35" height="12" rx="2" fill="#8B5CF6"/>
  <text x="185" y="181" font-family="Inter, sans-serif" font-size="7" fill="white">Video</text>
  
  <rect x="220" y="155" width="45" height="35" fill="white" stroke="#E2E8F0" stroke-width="0.5"/>
  <text x="230" y="167" font-family="Inter, sans-serif" font-size="10" fill="#1E293B">13</text>
  
  <rect x="265" y="155" width="45" height="35" fill="white" stroke="#E2E8F0" stroke-width="0.5"/>
  <text x="275" y="167" font-family="Inter, sans-serif" font-size="10" fill="#1E293B">14</text>
  <rect x="270" y="173" width="35" height="12" rx="2" fill="#EF4444"/>
  <text x="275" y="181" font-family="Inter, sans-serif" font-size="7" fill="white">Live</text>
  
  <rect x="310" y="155" width="45" height="35" fill="#FAFAFA" stroke="#E2E8F0" stroke-width="0.5"/>
  <text x="320" y="167" font-family="Inter, sans-serif" font-size="10" fill="#64748B">15</text>
  
  <!-- Calendar Days Row 3 -->
  <rect x="40" y="190" width="45" height="35" fill="white" stroke="#E2E8F0" stroke-width="0.5"/>
  <text x="50" y="202" font-family="Inter, sans-serif" font-size="10" fill="#1E293B">16</text>
  
  <rect x="85" y="190" width="45" height="35" fill="white" stroke="#E2E8F0" stroke-width="0.5"/>
  <text x="95" y="202" font-family="Inter, sans-serif" font-size="10" fill="#1E293B">17</text>
  
  <rect x="130" y="190" width="45" height="35" fill="white" stroke="#E2E8F0" stroke-width="0.5"/>
  <text x="140" y="202" font-family="Inter, sans-serif" font-size="10" fill="#1E293B">18</text>
  <rect x="135" y="208" width="35" height="12" rx="2" fill="#06B6D4"/>
  <text x="140" y="216" font-family="Inter, sans-serif" font-size="7" fill="white">Tweet</text>
  
  <rect x="175" y="190" width="45" height="35" fill="white" stroke="#E2E8F0" stroke-width="0.5"/>
  <text x="185" y="202" font-family="Inter, sans-serif" font-size="10" fill="#1E293B">19</text>
  
  <rect x="220" y="190" width="45" height="35" fill="white" stroke="#E2E8F0" stroke-width="0.5"/>
  <text x="230" y="202" font-family="Inter, sans-serif" font-size="10" fill="#1E293B">20</text>
  <rect x="225" y="208" width="35" height="12" rx="2" fill="#10B981"/>
  <text x="230" y="216" font-family="Inter, sans-serif" font-size="7" fill="white">Blog</text>
  
  <rect x="265" y="190" width="45" height="35" fill="white" stroke="#E2E8F0" stroke-width="0.5"/>
  <text x="275" y="202" font-family="Inter, sans-serif" font-size="10" fill="#1E293B">21</text>
  
  <rect x="310" y="190" width="45" height="35" fill="#FAFAFA" stroke="#E2E8F0" stroke-width="0.5"/>
  <text x="320" y="202" font-family="Inter, sans-serif" font-size="10" fill="#64748B">22</text>
  
  <!-- Quick Stats -->
  <rect x="40" y="240" width="100" height="20" rx="4" fill="#F0FDF4"/>
  <text x="45" y="252" font-family="Inter, sans-serif" font-size="9" fill="#22C55E">8 posts scheduled</text>
  
  <rect x="150" y="240" width="80" height="20" rx="4" fill="#FEF3C7"/>
  <text x="155" y="252" font-family="Inter, sans-serif" font-size="9" fill="#F59E0B">3 drafts</text>
  
  <rect x="240" y="240" width="110" height="20" rx="4" fill="#EFF6FF"/>
  <text x="245" y="252" font-family="Inter, sans-serif" font-size="9" fill="#3B82F6">Best time: 2-4 PM</text>
  
  <!-- Time Indicators -->
  <circle cx="370" cy="140" r="4" fill="#3B82F6"/>
  <text x="365" y="152" font-family="Inter, sans-serif" font-size="8" fill="#3B82F6">2PM</text>
  
  <circle cx="370" cy="175" r="4" fill="#22C55E"/>
  <text x="365" y="187" font-family="Inter, sans-serif" font-size="8" fill="#22C55E">9AM</text>
  
  <!-- Gradients -->
  <defs>
    <linearGradient id="schedulerGradient" x1="0%" y1="0%" x2="100%" y2="100%">
      <stop offset="0%" style="stop-color:#F0F9FF;stop-opacity:1" />
      <stop offset="100%" style="stop-color:#E0F2FE;stop-opacity:1" />
    </linearGradient>
  </defs>
</svg>